<svg width="285" height="40" viewBox="0 0 285 40" fill="none" xmlns="http://www.w3.org/2000/svg">
<g clip-path="url(#clip0_604_828)">
<path d="M51.6099 29.3916H47.99C47.589 19.8146 40.0363 11.8887 30.0773 10.1054C31.2136 9.04866 31.882 7.59559 31.882 5.94438C31.882 2.64194 29.2084 0 25.8665 0C22.5246 0 19.851 2.64194 19.851 5.94438C19.851 7.59559 20.5194 9.11471 21.6557 10.1715C11.6967 11.9548 4.14396 19.8806 3.74293 29.4577H-3.92585e-05C-3.18696e-05 30.7787 -3.18696e-05 30.0521 -3.18696e-05 30.7787C-3.18696e-05 31.5052 -6.10352e-05 31 -3.92585e-05 32.0996H51.6099C51.6099 31.5 51.6099 31.7265 51.6099 31C51.6099 30.2735 51.6099 30 51.6099 29.3916ZM25.8665 2.64194C27.738 2.64194 29.2084 4.09501 29.2084 5.94438C29.2084 7.79374 27.738 9.24681 25.8665 9.24681C23.995 9.24681 22.5246 7.79374 22.5246 5.94438C22.5246 4.09501 23.995 2.64194 25.8665 2.64194ZM25.8665 12.4171C36.2933 12.4171 44.8486 20.0127 45.3165 29.4577H6.41647C6.88434 19.9467 15.4397 12.4171 25.8665 12.4171Z" fill="#F25E3D"/>
<path d="M51.6099 36.5909H-6.10352e-05C-6.10352e-05 37 -1.37764e-05 37.1854 -1.37764e-05 37.9119C-1.37764e-05 38.6384 -6.10352e-05 38.5 -1.9597e-05 39.2329H51.6099C51.6099 38.5 51.6099 38.7265 51.6099 38C51.6099 37.2735 51.6099 37.5 51.6099 36.5909Z" fill="#F25E3D"/>
<path d="M61.814 33V32.63L62.591 32.371C63.0843 32.1983 63.405 31.9763 63.553 31.705C63.701 31.409 63.775 31.002 63.775 30.484V11.133C63.775 10.6397 63.701 10.2573 63.553 9.986C63.4297 9.69 63.1337 9.45567 62.665 9.283L61.814 8.95V8.58H72.396C75.3067 8.58 77.539 9.135 79.093 10.245C80.647 11.3303 81.424 12.8473 81.424 14.796C81.424 15.8813 81.017 16.9667 80.203 18.052C79.389 19.1373 78.1063 19.976 76.355 20.568L81.498 30.78C81.72 31.1993 81.9667 31.5447 82.238 31.816C82.534 32.0627 82.9163 32.2847 83.385 32.482L83.866 32.667V33H77.243L71.767 21.345H69.251V30.484C69.251 30.9527 69.325 31.335 69.473 31.631C69.621 31.927 69.9293 32.149 70.398 32.297L71.286 32.63V33H61.814ZM69.251 20.605H71.027C72.803 20.605 74.0857 20.1363 74.875 19.199C75.6643 18.237 76.059 16.8187 76.059 14.944C76.059 13.0447 75.689 11.6387 74.949 10.726C74.209 9.78866 72.9633 9.32 71.212 9.32H69.251V20.605ZM93.4323 14.648C95.0356 14.648 96.4046 14.981 97.5393 15.647C98.6739 16.2883 99.5373 17.1763 100.129 18.311C100.746 19.421 101.054 20.6913 101.054 22.122C101.054 22.3933 101.042 22.677 101.017 22.973C100.993 23.2443 100.943 23.491 100.869 23.713H89.8433C89.8679 26.377 90.3366 28.301 91.2493 29.485C92.1866 30.6443 93.5679 31.224 95.3933 31.224C96.6266 31.224 97.6256 31.0267 98.3903 30.632C99.1549 30.2373 99.8703 29.6577 100.536 28.893L100.906 29.226C100.142 30.5827 99.1179 31.6433 97.8353 32.408C96.5773 33.1727 95.0603 33.555 93.2843 33.555C91.5329 33.555 89.9789 33.185 88.6223 32.445C87.2656 31.6803 86.2049 30.595 85.4403 29.189C84.6756 27.783 84.2933 26.1057 84.2933 24.157C84.2933 22.1343 84.7373 20.42 85.6253 19.014C86.5133 17.5833 87.6479 16.498 89.0293 15.758C90.4353 15.018 91.9029 14.648 93.4323 14.648ZM93.3213 15.388C92.6059 15.388 91.9893 15.61 91.4713 16.054C90.9779 16.4733 90.5833 17.238 90.2873 18.348C90.0159 19.4333 89.8679 20.975 89.8433 22.973H96.1703C96.4169 20.2843 96.3183 18.348 95.8743 17.164C95.4303 15.98 94.5793 15.388 93.3213 15.388ZM111.824 33.555C110.147 33.555 108.618 33.1973 107.236 32.482C105.88 31.742 104.794 30.6813 103.98 29.3C103.191 27.894 102.796 26.1797 102.796 24.157C102.796 22.159 103.228 20.457 104.091 19.051C104.979 17.6203 106.151 16.535 107.606 15.795C109.086 15.0303 110.702 14.648 112.453 14.648C113.884 14.648 115.093 14.8823 116.079 15.351C117.066 15.8197 117.818 16.4363 118.336 17.201C118.854 17.941 119.113 18.718 119.113 19.532C119.113 20.2227 118.904 20.7653 118.484 21.16C118.065 21.53 117.522 21.715 116.856 21.715C116.141 21.715 115.561 21.456 115.117 20.938C114.673 20.42 114.414 19.7417 114.34 18.903C114.316 18.3603 114.328 17.904 114.377 17.534C114.427 17.1393 114.427 16.7447 114.377 16.35C114.279 15.9307 114.118 15.6593 113.896 15.536C113.699 15.388 113.415 15.314 113.045 15.314C111.541 15.314 110.369 15.9677 109.53 17.275C108.716 18.5823 108.309 20.6667 108.309 23.528C108.309 26.0193 108.766 27.931 109.678 29.263C110.616 30.5703 112.046 31.224 113.97 31.224C115.13 31.224 116.067 31.0143 116.782 30.595C117.498 30.1757 118.188 29.5467 118.854 28.708L119.224 29.004C118.608 30.4593 117.658 31.5817 116.375 32.371C115.093 33.1603 113.576 33.555 111.824 33.555ZM125.121 12.724C124.283 12.724 123.567 12.465 122.975 11.947C122.408 11.4043 122.124 10.726 122.124 9.912C122.124 9.07333 122.408 8.395 122.975 7.877C123.567 7.359 124.283 7.1 125.121 7.1C125.96 7.1 126.663 7.359 127.23 7.877C127.798 8.395 128.081 9.07333 128.081 9.912C128.081 10.726 127.798 11.4043 127.23 11.947C126.663 12.465 125.96 12.724 125.121 12.724ZM120.755 33V32.63L121.273 32.482C121.767 32.334 122.1 32.112 122.272 31.816C122.47 31.52 122.568 31.1253 122.568 30.632V19.051C122.568 18.533 122.47 18.1507 122.272 17.904C122.1 17.6327 121.767 17.4477 121.273 17.349L120.755 17.238V16.868L127.526 14.685L127.896 15.055L127.785 20.309V30.669C127.785 31.1623 127.872 31.557 128.044 31.853C128.242 32.149 128.575 32.371 129.043 32.519L129.413 32.63V33H120.755ZM130.657 41.51V41.14L131.101 40.992C132.014 40.7453 132.47 40.1533 132.47 39.216V19.088C132.47 18.5453 132.371 18.1383 132.174 17.867C132.001 17.5957 131.668 17.4107 131.175 17.312L130.657 17.201V16.831L136.947 14.685L137.317 15.055L137.65 16.202C138.464 15.7087 139.364 15.3263 140.351 15.055C141.362 14.7837 142.398 14.648 143.459 14.648C145.58 14.648 147.258 15.462 148.491 17.09C149.749 18.6933 150.378 20.9997 150.378 24.009C150.378 26.969 149.687 29.3 148.306 31.002C146.949 32.704 145.025 33.555 142.534 33.555C140.585 33.555 138.945 33.2713 137.613 32.704V39.105C137.613 40.0917 138.057 40.7083 138.945 40.955L139.648 41.14V41.51H130.657ZM140.758 32.482C141.991 32.482 142.966 31.8407 143.681 30.558C144.421 29.2753 144.791 27.1417 144.791 24.157C144.791 21.1723 144.446 19.088 143.755 17.904C143.064 16.6953 142.065 16.091 140.758 16.091C139.845 16.091 138.834 16.387 137.724 16.979V31.89C138.661 32.2847 139.673 32.482 140.758 32.482ZM161.301 14.648C162.905 14.648 164.274 14.981 165.408 15.647C166.543 16.2883 167.406 17.1763 167.998 18.311C168.615 19.421 168.923 20.6913 168.923 22.122C168.923 22.3933 168.911 22.677 168.886 22.973C168.862 23.2443 168.812 23.491 168.738 23.713H157.712C157.737 26.377 158.206 28.301 159.118 29.485C160.056 30.6443 161.437 31.224 163.262 31.224C164.496 31.224 165.495 31.0267 166.259 30.632C167.024 30.2373 167.739 29.6577 168.405 28.893L168.775 29.226C168.011 30.5827 166.987 31.6433 165.704 32.408C164.446 33.1727 162.929 33.555 161.153 33.555C159.402 33.555 157.848 33.185 156.491 32.445C155.135 31.6803 154.074 30.595 153.309 29.189C152.545 27.783 152.162 26.1057 152.162 24.157C152.162 22.1343 152.606 20.42 153.494 19.014C154.382 17.5833 155.517 16.498 156.898 15.758C158.304 15.018 159.772 14.648 161.301 14.648ZM161.19 15.388C160.475 15.388 159.858 15.61 159.34 16.054C158.847 16.4733 158.452 17.238 158.156 18.348C157.885 19.4333 157.737 20.975 157.712 22.973H164.039C164.286 20.2843 164.187 18.348 163.743 17.164C163.299 15.98 162.448 15.388 161.19 15.388ZM170.23 33V32.63L170.896 32.408C171.389 32.2353 171.722 32.001 171.895 31.705C172.068 31.409 172.154 31.0143 172.154 30.521C172.179 29.041 172.191 27.5487 172.191 26.044C172.191 24.5393 172.191 23.0347 172.191 21.53V20.05C172.191 18.57 172.191 17.09 172.191 15.61C172.191 14.1053 172.179 12.613 172.154 11.133C172.154 10.6397 172.08 10.245 171.932 9.949C171.809 9.653 171.513 9.41867 171.044 9.246L170.23 8.95V8.58H188.138L188.397 14.722H188.027L185.918 10.837C185.671 10.3683 185.388 9.99833 185.067 9.727C184.746 9.45567 184.302 9.32 183.735 9.32H177.778C177.753 11.0713 177.741 12.8597 177.741 14.685C177.741 16.5103 177.741 18.3233 177.741 20.124H181.589C182.156 20.124 182.576 20.0007 182.847 19.754C183.118 19.5073 183.377 19.1497 183.624 18.681L184.401 17.275H184.771V23.75H184.401L183.587 22.344C183.34 21.9 183.081 21.5423 182.81 21.271C182.563 20.9997 182.156 20.864 181.589 20.864H177.741C177.741 22.5907 177.741 24.2433 177.741 25.822C177.741 27.376 177.753 28.9053 177.778 30.41C177.778 31.372 178.247 32.001 179.184 32.297L180.294 32.63V33H170.23ZM193.46 12.724C192.622 12.724 191.906 12.465 191.314 11.947C190.747 11.4043 190.463 10.726 190.463 9.912C190.463 9.07333 190.747 8.395 191.314 7.877C191.906 7.359 192.622 7.1 193.46 7.1C194.299 7.1 195.002 7.359 195.569 7.877C196.137 8.395 196.42 9.07333 196.42 9.912C196.42 10.726 196.137 11.4043 195.569 11.947C195.002 12.465 194.299 12.724 193.46 12.724ZM189.094 33V32.63L189.612 32.482C190.106 32.334 190.439 32.112 190.611 31.816C190.809 31.52 190.907 31.1253 190.907 30.632V19.051C190.907 18.533 190.809 18.1507 190.611 17.904C190.439 17.6327 190.106 17.4477 189.612 17.349L189.094 17.238V16.868L195.865 14.685L196.235 15.055L196.124 20.309V30.669C196.124 31.1623 196.211 31.557 196.383 31.853C196.581 32.149 196.914 32.371 197.382 32.519L197.752 32.63V33H189.094ZM199.14 33V32.63L199.658 32.482C200.522 32.2353 200.953 31.631 200.953 30.669V19.088C200.953 18.5453 200.867 18.1507 200.694 17.904C200.522 17.6327 200.189 17.4477 199.695 17.349L199.14 17.201V16.831L205.467 14.685L205.837 15.055L206.133 17.275C206.997 16.5103 207.971 15.8813 209.056 15.388C210.142 14.8947 211.215 14.648 212.275 14.648C213.903 14.648 215.149 15.092 216.012 15.98C216.9 16.868 217.344 18.2247 217.344 20.05V30.706C217.344 31.668 217.813 32.2723 218.75 32.519L219.083 32.63V33H210.351V32.63L210.832 32.482C211.696 32.2107 212.127 31.6063 212.127 30.669V18.866C212.127 17.2873 211.338 16.498 209.759 16.498C208.674 16.498 207.49 17.0407 206.207 18.126V30.706C206.207 31.668 206.639 32.2723 207.502 32.519L207.835 32.63V33H199.14ZM228.125 33.555C226.67 33.555 225.362 33.2343 224.203 32.593C223.044 31.927 222.119 30.9157 221.428 29.559C220.762 28.1777 220.429 26.414 220.429 24.268C220.429 22.0973 220.811 20.309 221.576 18.903C222.341 17.4723 223.352 16.4117 224.61 15.721C225.868 15.0057 227.237 14.648 228.717 14.648C229.58 14.648 230.407 14.7343 231.196 14.907C231.985 15.0797 232.688 15.3387 233.305 15.684V10.874C233.305 10.356 233.219 9.97367 233.046 9.727C232.898 9.48033 232.565 9.30767 232.047 9.209L231.344 9.061V8.691L238.078 7.063L238.485 7.396L238.337 12.576V30.669C238.337 31.1623 238.423 31.5693 238.596 31.89C238.769 32.186 239.089 32.3957 239.558 32.519L239.891 32.63V33L233.564 33.407L233.231 32.075C232.565 32.519 231.8 32.8767 230.937 33.148C230.098 33.4193 229.161 33.555 228.125 33.555ZM230.271 32.186C231.307 32.186 232.257 31.8777 233.12 31.261V16.572C232.207 15.98 231.27 15.684 230.308 15.684C229.124 15.684 228.113 16.3747 227.274 17.756C226.435 19.1127 226.016 21.2587 226.016 24.194C226.016 27.1293 226.411 29.2013 227.2 30.41C227.989 31.594 229.013 32.186 230.271 32.186ZM250.564 14.648C252.167 14.648 253.536 14.981 254.671 15.647C255.806 16.2883 256.669 17.1763 257.261 18.311C257.878 19.421 258.186 20.6913 258.186 22.122C258.186 22.3933 258.174 22.677 258.149 22.973C258.124 23.2443 258.075 23.491 258.001 23.713H246.975C247 26.377 247.468 28.301 248.381 29.485C249.318 30.6443 250.7 31.224 252.525 31.224C253.758 31.224 254.757 31.0267 255.522 30.632C256.287 30.2373 257.002 29.6577 257.668 28.893L258.038 29.226C257.273 30.5827 256.25 31.6433 254.967 32.408C253.709 33.1727 252.192 33.555 250.416 33.555C248.665 33.555 247.111 33.185 245.754 32.445C244.397 31.6803 243.337 30.595 242.572 29.189C241.807 27.783 241.425 26.1057 241.425 24.157C241.425 22.1343 241.869 20.42 242.757 19.014C243.645 17.5833 244.78 16.498 246.161 15.758C247.567 15.018 249.035 14.648 250.564 14.648ZM250.453 15.388C249.738 15.388 249.121 15.61 248.603 16.054C248.11 16.4733 247.715 17.238 247.419 18.348C247.148 19.4333 247 20.975 246.975 22.973H253.302C253.549 20.2843 253.45 18.348 253.006 17.164C252.562 15.98 251.711 15.388 250.453 15.388ZM259.78 33V32.63L260.335 32.482C260.828 32.334 261.161 32.112 261.334 31.816C261.531 31.52 261.63 31.1377 261.63 30.669V19.088C261.63 18.5453 261.531 18.1507 261.334 17.904C261.161 17.6327 260.828 17.4477 260.335 17.349L259.78 17.201V16.831L266.144 14.685L266.514 15.055L266.847 18.237V18.533C267.192 17.8423 267.636 17.2133 268.179 16.646C268.746 16.054 269.363 15.573 270.029 15.203C270.72 14.833 271.398 14.648 272.064 14.648C273.001 14.648 273.717 14.907 274.21 15.425C274.703 15.943 274.95 16.5967 274.95 17.386C274.95 18.2247 274.703 18.8783 274.21 19.347C273.741 19.791 273.174 20.013 272.508 20.013C271.472 20.013 270.559 19.495 269.77 18.459L269.696 18.385C269.449 18.0397 269.166 17.8547 268.845 17.83C268.524 17.7807 268.228 17.9287 267.957 18.274C267.71 18.496 267.501 18.7673 267.328 19.088C267.18 19.384 267.032 19.7293 266.884 20.124V30.447C266.884 31.4337 267.316 32.0503 268.179 32.297L269.363 32.63V33H259.78Z" fill="#222222"/>
</g>
<defs>
<clipPath id="clip0_604_828">
<rect width="284.15" height="39.2329" fill="white"/>
</clipPath>
</defs>
</svg>
