<svg width="284" height="40" viewBox="0 0 284 40" fill="none" xmlns="http://www.w3.org/2000/svg">
<g clip-path="url(#clip0_604_833)">
<path d="M50.9999 29.6245H47.4228C47.0265 20.0475 39.563 12.1217 29.7218 10.3383C30.8446 9.28157 31.5051 7.8285 31.5051 6.17729C31.5051 2.87485 28.8632 0.23291 25.5608 0.23291C22.2583 0.23291 19.6164 2.87485 19.6164 6.17729C19.6164 7.8285 20.2769 9.34762 21.3997 10.4044C11.5585 12.1877 4.09498 20.1135 3.69869 29.6906H-3.95159e-05C-3.22143e-05 31.0116 -3.22143e-05 30.285 -3.22143e-05 31.0116C-3.22143e-05 31.7381 -6.10352e-05 31.2329 -3.95159e-05 32.3325H50.9999C50.9999 31.7329 50.9999 31.9594 50.9999 31.2329C50.9999 30.5064 50.9999 30.2329 50.9999 29.6245ZM25.5608 2.87485C27.4101 2.87485 28.8632 4.32792 28.8632 6.17729C28.8632 8.02665 27.4101 9.47972 25.5608 9.47972C23.7114 9.47972 22.2583 8.02665 22.2583 6.17729C22.2583 4.32792 23.7114 2.87485 25.5608 2.87485ZM25.5608 12.65C35.8643 12.65 44.3185 20.2456 44.7809 29.6906H6.34063C6.80297 20.1796 15.2572 12.65 25.5608 12.65Z" fill="#F25E3D"/>
<path d="M50.9999 36.8238H-6.10352e-05C-6.10352e-05 37.2329 -1.4335e-05 37.4183 -1.4335e-05 38.1448C-1.4335e-05 38.8713 -6.10352e-05 38.7329 -2.00868e-05 39.4658H50.9999C50.9999 38.7329 50.9999 38.9594 50.9999 38.2329C50.9999 37.5064 50.9999 37.7329 50.9999 36.8238Z" fill="#F25E3D"/>
<path d="M63.814 33V32.63L64.591 32.371C65.0843 32.1983 65.405 31.9763 65.553 31.705C65.701 31.409 65.775 31.002 65.775 30.484V11.133C65.775 10.6397 65.701 10.2573 65.553 9.986C65.4297 9.69 65.1337 9.45567 64.665 9.283L63.814 8.95V8.58H74.396C77.3067 8.58 79.539 9.135 81.093 10.245C82.647 11.3303 83.424 12.8473 83.424 14.796C83.424 15.8813 83.017 16.9667 82.203 18.052C81.389 19.1373 80.1063 19.976 78.355 20.568L83.498 30.78C83.72 31.1993 83.9667 31.5447 84.238 31.816C84.534 32.0627 84.9163 32.2847 85.385 32.482L85.866 32.667V33H79.243L73.767 21.345H71.251V30.484C71.251 30.9527 71.325 31.335 71.473 31.631C71.621 31.927 71.9293 32.149 72.398 32.297L73.286 32.63V33H63.814ZM71.251 20.605H73.027C74.803 20.605 76.0857 20.1363 76.875 19.199C77.6643 18.237 78.059 16.8187 78.059 14.944C78.059 13.0447 77.689 11.6387 76.949 10.726C76.209 9.78866 74.9633 9.32 73.212 9.32H71.251V20.605ZM95.4323 14.648C97.0356 14.648 98.4046 14.981 99.5393 15.647C100.674 16.2883 101.537 17.1763 102.129 18.311C102.746 19.421 103.054 20.6913 103.054 22.122C103.054 22.3933 103.042 22.677 103.017 22.973C102.993 23.2443 102.943 23.491 102.869 23.713H91.8433C91.8679 26.377 92.3366 28.301 93.2493 29.485C94.1866 30.6443 95.5679 31.224 97.3933 31.224C98.6266 31.224 99.6256 31.0267 100.39 30.632C101.155 30.2373 101.87 29.6577 102.536 28.893L102.906 29.226C102.142 30.5827 101.118 31.6433 99.8353 32.408C98.5773 33.1727 97.0603 33.555 95.2843 33.555C93.5329 33.555 91.9789 33.185 90.6223 32.445C89.2656 31.6803 88.2049 30.595 87.4403 29.189C86.6756 27.783 86.2933 26.1057 86.2933 24.157C86.2933 22.1343 86.7373 20.42 87.6253 19.014C88.5133 17.5833 89.6479 16.498 91.0293 15.758C92.4353 15.018 93.9029 14.648 95.4323 14.648ZM95.3213 15.388C94.6059 15.388 93.9893 15.61 93.4713 16.054C92.9779 16.4733 92.5833 17.238 92.2873 18.348C92.0159 19.4333 91.8679 20.975 91.8433 22.973H98.1703C98.4169 20.2843 98.3183 18.348 97.8743 17.164C97.4303 15.98 96.5793 15.388 95.3213 15.388ZM113.824 33.555C112.147 33.555 110.618 33.1973 109.236 32.482C107.88 31.742 106.794 30.6813 105.98 29.3C105.191 27.894 104.796 26.1797 104.796 24.157C104.796 22.159 105.228 20.457 106.091 19.051C106.979 17.6203 108.151 16.535 109.606 15.795C111.086 15.0303 112.702 14.648 114.453 14.648C115.884 14.648 117.093 14.8823 118.079 15.351C119.066 15.8197 119.818 16.4363 120.336 17.201C120.854 17.941 121.113 18.718 121.113 19.532C121.113 20.2227 120.904 20.7653 120.484 21.16C120.065 21.53 119.522 21.715 118.856 21.715C118.141 21.715 117.561 21.456 117.117 20.938C116.673 20.42 116.414 19.7417 116.34 18.903C116.316 18.3603 116.328 17.904 116.377 17.534C116.427 17.1393 116.427 16.7447 116.377 16.35C116.279 15.9307 116.118 15.6593 115.896 15.536C115.699 15.388 115.415 15.314 115.045 15.314C113.541 15.314 112.369 15.9677 111.53 17.275C110.716 18.5823 110.309 20.6667 110.309 23.528C110.309 26.0193 110.766 27.931 111.678 29.263C112.616 30.5703 114.046 31.224 115.97 31.224C117.13 31.224 118.067 31.0143 118.782 30.595C119.498 30.1757 120.188 29.5467 120.854 28.708L121.224 29.004C120.608 30.4593 119.658 31.5817 118.375 32.371C117.093 33.1603 115.576 33.555 113.824 33.555ZM127.121 12.724C126.283 12.724 125.567 12.465 124.975 11.947C124.408 11.4043 124.124 10.726 124.124 9.912C124.124 9.07333 124.408 8.395 124.975 7.877C125.567 7.359 126.283 7.1 127.121 7.1C127.96 7.1 128.663 7.359 129.23 7.877C129.798 8.395 130.081 9.07333 130.081 9.912C130.081 10.726 129.798 11.4043 129.23 11.947C128.663 12.465 127.96 12.724 127.121 12.724ZM122.755 33V32.63L123.273 32.482C123.767 32.334 124.1 32.112 124.272 31.816C124.47 31.52 124.568 31.1253 124.568 30.632V19.051C124.568 18.533 124.47 18.1507 124.272 17.904C124.1 17.6327 123.767 17.4477 123.273 17.349L122.755 17.238V16.868L129.526 14.685L129.896 15.055L129.785 20.309V30.669C129.785 31.1623 129.872 31.557 130.044 31.853C130.242 32.149 130.575 32.371 131.043 32.519L131.413 32.63V33H122.755ZM132.657 41.51V41.14L133.101 40.992C134.014 40.7453 134.47 40.1533 134.47 39.216V19.088C134.47 18.5453 134.371 18.1383 134.174 17.867C134.001 17.5957 133.668 17.4107 133.175 17.312L132.657 17.201V16.831L138.947 14.685L139.317 15.055L139.65 16.202C140.464 15.7087 141.364 15.3263 142.351 15.055C143.362 14.7837 144.398 14.648 145.459 14.648C147.58 14.648 149.258 15.462 150.491 17.09C151.749 18.6933 152.378 20.9997 152.378 24.009C152.378 26.969 151.687 29.3 150.306 31.002C148.949 32.704 147.025 33.555 144.534 33.555C142.585 33.555 140.945 33.2713 139.613 32.704V39.105C139.613 40.0917 140.057 40.7083 140.945 40.955L141.648 41.14V41.51H132.657ZM142.758 32.482C143.991 32.482 144.966 31.8407 145.681 30.558C146.421 29.2753 146.791 27.1417 146.791 24.157C146.791 21.1723 146.446 19.088 145.755 17.904C145.064 16.6953 144.065 16.091 142.758 16.091C141.845 16.091 140.834 16.387 139.724 16.979V31.89C140.661 32.2847 141.673 32.482 142.758 32.482ZM163.301 14.648C164.905 14.648 166.274 14.981 167.408 15.647C168.543 16.2883 169.406 17.1763 169.998 18.311C170.615 19.421 170.923 20.6913 170.923 22.122C170.923 22.3933 170.911 22.677 170.886 22.973C170.862 23.2443 170.812 23.491 170.738 23.713H159.712C159.737 26.377 160.206 28.301 161.118 29.485C162.056 30.6443 163.437 31.224 165.262 31.224C166.496 31.224 167.495 31.0267 168.259 30.632C169.024 30.2373 169.739 29.6577 170.405 28.893L170.775 29.226C170.011 30.5827 168.987 31.6433 167.704 32.408C166.446 33.1727 164.929 33.555 163.153 33.555C161.402 33.555 159.848 33.185 158.491 32.445C157.135 31.6803 156.074 30.595 155.309 29.189C154.545 27.783 154.162 26.1057 154.162 24.157C154.162 22.1343 154.606 20.42 155.494 19.014C156.382 17.5833 157.517 16.498 158.898 15.758C160.304 15.018 161.772 14.648 163.301 14.648ZM163.19 15.388C162.475 15.388 161.858 15.61 161.34 16.054C160.847 16.4733 160.452 17.238 160.156 18.348C159.885 19.4333 159.737 20.975 159.712 22.973H166.039C166.286 20.2843 166.187 18.348 165.743 17.164C165.299 15.98 164.448 15.388 163.19 15.388ZM172.23 33V32.63L172.896 32.408C173.389 32.2353 173.722 32.001 173.895 31.705C174.068 31.409 174.154 31.0143 174.154 30.521C174.179 29.041 174.191 27.5487 174.191 26.044C174.191 24.5393 174.191 23.0347 174.191 21.53V20.05C174.191 18.57 174.191 17.09 174.191 15.61C174.191 14.1053 174.179 12.613 174.154 11.133C174.154 10.6397 174.08 10.245 173.932 9.949C173.809 9.653 173.513 9.41867 173.044 9.246L172.23 8.95V8.58H190.138L190.397 14.722H190.027L187.918 10.837C187.671 10.3683 187.388 9.99833 187.067 9.727C186.746 9.45567 186.302 9.32 185.735 9.32H179.778C179.753 11.0713 179.741 12.8597 179.741 14.685C179.741 16.5103 179.741 18.3233 179.741 20.124H183.589C184.156 20.124 184.576 20.0007 184.847 19.754C185.118 19.5073 185.377 19.1497 185.624 18.681L186.401 17.275H186.771V23.75H186.401L185.587 22.344C185.34 21.9 185.081 21.5423 184.81 21.271C184.563 20.9997 184.156 20.864 183.589 20.864H179.741C179.741 22.5907 179.741 24.2433 179.741 25.822C179.741 27.376 179.753 28.9053 179.778 30.41C179.778 31.372 180.247 32.001 181.184 32.297L182.294 32.63V33H172.23ZM195.46 12.724C194.622 12.724 193.906 12.465 193.314 11.947C192.747 11.4043 192.463 10.726 192.463 9.912C192.463 9.07333 192.747 8.395 193.314 7.877C193.906 7.359 194.622 7.1 195.46 7.1C196.299 7.1 197.002 7.359 197.569 7.877C198.137 8.395 198.42 9.07333 198.42 9.912C198.42 10.726 198.137 11.4043 197.569 11.947C197.002 12.465 196.299 12.724 195.46 12.724ZM191.094 33V32.63L191.612 32.482C192.106 32.334 192.439 32.112 192.611 31.816C192.809 31.52 192.907 31.1253 192.907 30.632V19.051C192.907 18.533 192.809 18.1507 192.611 17.904C192.439 17.6327 192.106 17.4477 191.612 17.349L191.094 17.238V16.868L197.865 14.685L198.235 15.055L198.124 20.309V30.669C198.124 31.1623 198.211 31.557 198.383 31.853C198.581 32.149 198.914 32.371 199.382 32.519L199.752 32.63V33H191.094ZM201.14 33V32.63L201.658 32.482C202.522 32.2353 202.953 31.631 202.953 30.669V19.088C202.953 18.5453 202.867 18.1507 202.694 17.904C202.522 17.6327 202.189 17.4477 201.695 17.349L201.14 17.201V16.831L207.467 14.685L207.837 15.055L208.133 17.275C208.997 16.5103 209.971 15.8813 211.056 15.388C212.142 14.8947 213.215 14.648 214.275 14.648C215.903 14.648 217.149 15.092 218.012 15.98C218.9 16.868 219.344 18.2247 219.344 20.05V30.706C219.344 31.668 219.813 32.2723 220.75 32.519L221.083 32.63V33H212.351V32.63L212.832 32.482C213.696 32.2107 214.127 31.6063 214.127 30.669V18.866C214.127 17.2873 213.338 16.498 211.759 16.498C210.674 16.498 209.49 17.0407 208.207 18.126V30.706C208.207 31.668 208.639 32.2723 209.502 32.519L209.835 32.63V33H201.14ZM230.125 33.555C228.67 33.555 227.362 33.2343 226.203 32.593C225.044 31.927 224.119 30.9157 223.428 29.559C222.762 28.1777 222.429 26.414 222.429 24.268C222.429 22.0973 222.811 20.309 223.576 18.903C224.341 17.4723 225.352 16.4117 226.61 15.721C227.868 15.0057 229.237 14.648 230.717 14.648C231.58 14.648 232.407 14.7343 233.196 14.907C233.985 15.0797 234.688 15.3387 235.305 15.684V10.874C235.305 10.356 235.219 9.97367 235.046 9.727C234.898 9.48033 234.565 9.30767 234.047 9.209L233.344 9.061V8.691L240.078 7.063L240.485 7.396L240.337 12.576V30.669C240.337 31.1623 240.423 31.5693 240.596 31.89C240.769 32.186 241.089 32.3957 241.558 32.519L241.891 32.63V33L235.564 33.407L235.231 32.075C234.565 32.519 233.8 32.8767 232.937 33.148C232.098 33.4193 231.161 33.555 230.125 33.555ZM232.271 32.186C233.307 32.186 234.257 31.8777 235.12 31.261V16.572C234.207 15.98 233.27 15.684 232.308 15.684C231.124 15.684 230.113 16.3747 229.274 17.756C228.435 19.1127 228.016 21.2587 228.016 24.194C228.016 27.1293 228.411 29.2013 229.2 30.41C229.989 31.594 231.013 32.186 232.271 32.186ZM252.564 14.648C254.167 14.648 255.536 14.981 256.671 15.647C257.806 16.2883 258.669 17.1763 259.261 18.311C259.878 19.421 260.186 20.6913 260.186 22.122C260.186 22.3933 260.174 22.677 260.149 22.973C260.124 23.2443 260.075 23.491 260.001 23.713H248.975C249 26.377 249.468 28.301 250.381 29.485C251.318 30.6443 252.7 31.224 254.525 31.224C255.758 31.224 256.757 31.0267 257.522 30.632C258.287 30.2373 259.002 29.6577 259.668 28.893L260.038 29.226C259.273 30.5827 258.25 31.6433 256.967 32.408C255.709 33.1727 254.192 33.555 252.416 33.555C250.665 33.555 249.111 33.185 247.754 32.445C246.397 31.6803 245.337 30.595 244.572 29.189C243.807 27.783 243.425 26.1057 243.425 24.157C243.425 22.1343 243.869 20.42 244.757 19.014C245.645 17.5833 246.78 16.498 248.161 15.758C249.567 15.018 251.035 14.648 252.564 14.648ZM252.453 15.388C251.738 15.388 251.121 15.61 250.603 16.054C250.11 16.4733 249.715 17.238 249.419 18.348C249.148 19.4333 249 20.975 248.975 22.973H255.302C255.549 20.2843 255.45 18.348 255.006 17.164C254.562 15.98 253.711 15.388 252.453 15.388ZM261.78 33V32.63L262.335 32.482C262.828 32.334 263.161 32.112 263.334 31.816C263.531 31.52 263.63 31.1377 263.63 30.669V19.088C263.63 18.5453 263.531 18.1507 263.334 17.904C263.161 17.6327 262.828 17.4477 262.335 17.349L261.78 17.201V16.831L268.144 14.685L268.514 15.055L268.847 18.237V18.533C269.192 17.8423 269.636 17.2133 270.179 16.646C270.746 16.054 271.363 15.573 272.029 15.203C272.72 14.833 273.398 14.648 274.064 14.648C275.001 14.648 275.717 14.907 276.21 15.425C276.703 15.943 276.95 16.5967 276.95 17.386C276.95 18.2247 276.703 18.8783 276.21 19.347C275.741 19.791 275.174 20.013 274.508 20.013C273.472 20.013 272.559 19.495 271.77 18.459L271.696 18.385C271.449 18.0397 271.166 17.8547 270.845 17.83C270.524 17.7807 270.228 17.9287 269.957 18.274C269.71 18.496 269.501 18.7673 269.328 19.088C269.18 19.384 269.032 19.7293 268.884 20.124V30.447C268.884 31.4337 269.316 32.0503 270.179 32.297L271.363 32.63V33H261.78Z" fill="white"/>
</g>
<defs>
<clipPath id="clip0_604_833">
<rect width="284" height="39.2329" fill="white" transform="translate(0 0.23291)"/>
</clipPath>
</defs>
</svg>
